<svg xmlns="http://www.w3.org/2000/svg" viewBox="0 0 600 600" width="600" height="600" role="img" aria-labelledby="t d">
<title id="t">Kaleem — your data, set free</title>
<desc id="d">An old locked box is unlocked and opened; its data blocks travel out and land sorted in a clean open folder, and a key is handed back to the owner.</desc>
<defs>
<filter id="pen" x="-5%" y="-5%" width="110%" height="110%">
<feTurbulence type="fractalNoise" baseFrequency="0.03" numOctaves="2" seed="4" result="n"/>
<feDisplacementMap in="SourceGraphic" in2="n" scale="1.5"/>
</filter>
<style>
@keyframes twinkle {
  0%, 100% { opacity: 1; }
  50% { opacity: 0.3; }
}
@keyframes float-4oclock-1 {
  0% { transform: translate(0, 0); }
  100% { transform: translate(60px, 80px); }
}
@keyframes float-4oclock-2 {
  0% { transform: translate(0, 0); }
  100% { transform: translate(70px, 90px); }
}
.star {
  animation: twinkle 3s ease-in-out infinite;
}
.star-1 {
  animation: twinkle 3s ease-in-out infinite, float-4oclock-1 8s ease-in-out infinite;
}
.star-2 {
  animation: twinkle 3.5s ease-in-out infinite, float-4oclock-2 9s ease-in-out infinite;
}
</style>
</defs>
<g filter="url(#pen)" stroke="#1f1f1f" stroke-width="4" stroke-linejoin="round" stroke-linecap="round">
<!-- 1 · the old system: lilac box, corner peeled open, tangled data, unlocked padlock -->
<path d="M60 90 H200 L250 140 V310 H60 Z" fill="#d9ccf0"/>
<path d="M200 90 V140 H250 Z" fill="#c4b3e8"/>
<path d="M92 172 c24 -28 50 14 32 28 c-21 15 -37 -21 -5 -32 c34 -11 56 24 35 42 c-19 16 -48 -2 -30 -24 c19 -24 68 -5 72 24 c2 21 -24 32 -42 18" fill="none" stroke-width="3.5"/>
<path d="M96 262 v-12 a14 14 0 0 1 28 0 v-5" fill="none"/>
<rect x="86" y="262" width="46" height="36" rx="5" fill="#f9d2ae"/>
<circle cx="109" cy="277" r="4.5" fill="#1f1f1f" stroke="none"/>
<path d="M109 280 v8" stroke-width="3.5"/>
<!-- 2 · the journey -->
<path d="M256 132 C 370 96, 470 190, 438 326" fill="none" stroke-width="3" stroke-dasharray="1 11"/>
<rect x="308" y="106" width="40" height="40" rx="4" fill="#f7e7b0" transform="rotate(-12 328 126)"/>
<rect x="382" y="144" width="40" height="40" rx="4" fill="#bfe6d6" transform="rotate(8 402 164)"/>
<rect x="421" y="223" width="40" height="40" rx="4" fill="#c6ddf0" transform="rotate(-6 441 243)"/>
<!-- 3 · the result: clean open folder, data sorted -->
<path d="M330 350 H384 L398 336 H458 L472 350 H540 V520 H330 Z" fill="#faf6ee"/>
<rect x="354" y="374" width="26" height="26" rx="3" fill="#f7e7b0"/><path d="M396 387 H510" stroke-width="3.5"/>
<rect x="354" y="418" width="26" height="26" rx="3" fill="#bfe6d6"/><path d="M396 431 H488" stroke-width="3.5"/>
<rect x="354" y="462" width="26" height="26" rx="3" fill="#c6ddf0"/><path d="M396 475 H502" stroke-width="3.5"/>
<!-- 4 · the key -->
<circle cx="96" cy="470" r="22" fill="#f7e7b0"/>
<circle cx="96" cy="470" r="7" fill="#f8c9b8"/>
<path d="M118 470 H240 M216 470 V488 M232 470 V484" fill="none"/>
<!-- sparkles - animated stars -->
<!-- top-right 5-pointed star in butter -->
<g class="star-1" transform="translate(548, 110)">
<path d="M0,-10 L2.4,-3.1 L9.5,-3.1 L3.8,1.9 L6.2,8.8 L0,4.2 L-6.2,8.8 L-3.8,1.9 L-9.5,-3.1 L-2.4,-3.1 Z" fill="#f7e7b0" stroke="none"/>
</g>
<!-- bottom-center 4-pointed star in apricot -->
<g class="star-2" transform="translate(280, 540)">
<path d="M0,-11 L3,-3 L11,-3 L4,2 L7,10 L0,5 L-7,10 L-4,2 L-11,-3 L-3,-3 Z" fill="#f9d2ae" stroke="none"/>
</g>
<!-- middle 6-pointed star in sky blue -->
<g class="star" transform="translate(420, 280)" style="animation-duration: 4s; animation-delay: 0.5s;">
<path d="M0,-9 L2.6,-2.8 L8.2,-2.8 L3.5,1.7 L6.1,8.2 L0,4.2 L-6.1,8.2 L-3.5,1.7 L-8.2,-2.8 L-2.6,-2.8 Z" fill="#bfe6d6" stroke="none"/>
</g>
</g>
</svg>
