<svg xmlns="http://www.w3.org/2000/svg" width="500" height="420" viewBox="0 0 500 420">
<defs><filter id="pen" x="-5%" y="-5%" width="110%" height="110%"><feTurbulence type="fractalNoise" baseFrequency="0.035" numOctaves="2" seed="3" result="n"></feTurbulence><feDisplacementMap in="SourceGraphic" in2="n" scale="3.5"></feDisplacementMap></filter></defs>
<g filter="url(#pen)" stroke="#1f1f1f" stroke-width="3.5" stroke-linejoin="round" stroke-linecap="round">
<polygon points="90,160 250,160 330,240 330,370 90,370" fill="#d9ccf0" stroke="none"></polygon>
<path d="M250 160H90V370H330V240" fill="none"></path>
<path d="M122 210h96M122 250h130M122 290h74M122 330h110" fill="none" stroke-width="3"></path>
<rect x="270" y="176" width="44" height="44" fill="#f7e7b0"></rect>
<rect x="332" y="120" width="34" height="34" fill="#bfe6d6"></rect>
<rect x="382" y="78" width="26" height="26" fill="#c6ddf0"></rect>
<rect x="420" y="44" width="16" height="16" fill="#faf6ee"></rect>
<circle cx="410" cy="330" r="34" fill="#bfe6d6"></circle>
<circle cx="410" cy="330" r="42" fill="none" stroke-width="9" stroke-dasharray="8 9.6"></circle>
<circle cx="410" cy="330" r="12" fill="#f8c9b8"></circle>
<circle cx="150" cy="78" r="34" fill="#f7e7b0"></circle>
<path d="M138 112v16h24v-16" fill="#faf6ee"></path>
<path d="M142 136h16" fill="none"></path>
<path d="M150 28v-14M108 44l-10-10M192 44l10-10M96 80h-14M204 80h14" fill="none" stroke-width="3"></path>
<path d="M40 250c-20 40 -10 90 30 110" fill="none" stroke-width="3" stroke-dasharray="2 9"></path>
<path d="M60 350l12 12l-18 4" fill="none" stroke-width="3"></path>
<path d="M455 190l10 10M465 190l-10 10M300 30l8 8M308 30l-8 8" fill="none" stroke-width="2.5"></path>
<circle cx="350" cy="400" r="5" fill="none" stroke-width="2.5"></circle>
<circle cx="460" cy="250" r="4" fill="#1f1f1f" stroke="none"></circle>
</g>
</svg>
